# xmcd
#
# Track frame offsets: 
#        150
#        14357
#        28352
#        44470
#        60522
#        74035
#        86295
#        98987
#        112245
#        125867
#        139362
#        154145
#        167915
#        179905
#        193897
#        207990
#        221383
#        234825
#        246675
#        260313
#
# Disc length: 3615 seconds
#
# Revision: 0
# Processed by: cddbd v1.5.2PL0 Copyright (c) Steve Scherf et al.
# Submitted via: ExactAudioCopy v0.95b3
#
DISCID=400e1d14
DTITLE=John Lee Hooker - Too Much Boogie
DYEAR=2006
DGENRE=Blues
TTITLE0=Boogie Chillen
TTITLE1=Sally May
TTITLE2=Black Man Blues
TTITLE3=Low Down Midnight Boogie
TTITLE4=Crawling King Snake
TTITLE5=Burnin' Hell
TTITLE6=Nightmare Blues
TTITLE7=Wednesday Evening
TTITLE8=Never Satisfied
TTITLE9=John L's House Rent Boogie
TTITLE10=My Daddy Was A Jockey
TTITLE11=Louise
TTITLE12=How Can You Do It
TTITLE13=I'm In The Mood
TTITLE14=Cold Chills All Over Me
TTITLE15=It's My Own Fault
TTITLE16=Let's Talk It Over
TTITLE17=Wobbling Baby
TTITLE18=Too Much Boogie
TTITLE19=Gotta Boogie
EXTD=
EXTT0=
EXTT1=
EXTT2=
EXTT3=
EXTT4=
EXTT5=
EXTT6=
EXTT7=
EXTT8=
EXTT9=
EXTT10=
EXTT11=
EXTT12=
EXTT13=
EXTT14=
EXTT15=
EXTT16=
EXTT17=
EXTT18=
EXTT19=
PLAYORDER=
